# xmcd
#
# Track frame offsets:
#	150
#	10374
#	23431
#	34697
#	45703
#	56162
#	66575
#	78455
#	89133
#	98762
#	108873
#
# Disc length: 1595 seconds
#
# Revision: 0
# Processed by: cddbd v1.5.2PL0 Copyright (c) Steve Scherf et al.
# Submitted via: EasyCDDAExtractor 8.2.3.1
#
DISCID=8c06390b
DTITLE=Chet Atkins and Hank Snow - C B Atkins and C E Snow By Special Request
DYEAR=1970
DGENRE=Country
TTITLE0=Limbo Rock
TTITLE1=Tammy
TTITLE2=Wheels
TTITLE3=Everybody Does In Hawaii
TTITLE4=Tiptoeing
TTITLE5=Poison Love
TTITLE6=Hold Me Tight
TTITLE7=Jamaica Farewell
TTITLE8=I Saw The Light
TTITLE9=The Green Leaves Of Summer
TTITLE10=Difficult
EXTD=
EXTT0=
EXTT1=
EXTT2=
EXTT3=
EXTT4=
EXTT5=
EXTT6=
EXTT7=
EXTT8=
EXTT9=
EXTT10=
PLAYORDER=
